<mxfile host="app.diagrams.net" agent="Mozilla/5.0 (Windows NT 10.0; Win64; x64) AppleWebKit/537.36 (KHTML, like Gecko) Chrome/133.0.0.0 Safari/537.36" version="26.0.16">
  <diagram name="Сторінка-1" id="-skXEtfbD3NpZsCxmlpl">
    <mxGraphModel dx="1050" dy="603" grid="1" gridSize="10" guides="1" tooltips="1" connect="1" arrows="1" fold="1" page="1" pageScale="1" pageWidth="827" pageHeight="1169" math="0" shadow="0">
      <root>
        <mxCell id="0" />
        <mxCell id="1" parent="0" />
        <mxCell id="eTj1_huy_UNCoXeqOB4v-1" value="Money&lt;div&gt;- wholePart: &lt;span class=&quot;hljs-type&quot;&gt;int&lt;br&gt;- cents: &lt;span class=&quot;hljs-type&quot;&gt;int&lt;br&gt;+ getWholePart(): &lt;span class=&quot;hljs-type&quot;&gt;int&lt;/span&gt;  |&amp;nbsp; + getCents(): &lt;span class=&quot;hljs-type&quot;&gt;int&lt;/span&gt;&amp;nbsp; &amp;nbsp;+ setMoney(&lt;span class=&quot;hljs-type&quot;&gt;int&lt;/span&gt;, &lt;span class=&quot;hljs-type&quot;&gt;int&lt;/span&gt;)&amp;nbsp; + display(): &lt;span class=&quot;hljs-type&quot;&gt;void&lt;/span&gt;&lt;/span&gt;&lt;/span&gt;&lt;/div&gt;" style="rounded=0;whiteSpace=wrap;html=1;" vertex="1" parent="1">
          <mxGeometry x="80" y="50" width="120" height="130" as="geometry" />
        </mxCell>
        <mxCell id="eTj1_huy_UNCoXeqOB4v-6" value="" style="edgeStyle=orthogonalEdgeStyle;rounded=0;orthogonalLoop=1;jettySize=auto;html=1;" edge="1" parent="1" source="eTj1_huy_UNCoXeqOB4v-2" target="eTj1_huy_UNCoXeqOB4v-1">
          <mxGeometry relative="1" as="geometry" />
        </mxCell>
        <mxCell id="eTj1_huy_UNCoXeqOB4v-2" value="Product&lt;br&gt;- name: String&lt;br&gt;- price: Money&lt;br&gt;+ reducePrice(int): void&lt;br&gt;+ displayProduct(): void&amp;nbsp;" style="rounded=0;whiteSpace=wrap;html=1;" vertex="1" parent="1">
          <mxGeometry x="310" y="50" width="120" height="110" as="geometry" />
        </mxCell>
        <mxCell id="eTj1_huy_UNCoXeqOB4v-8" style="edgeStyle=orthogonalEdgeStyle;rounded=0;orthogonalLoop=1;jettySize=auto;html=1;exitX=1;exitY=0.5;exitDx=0;exitDy=0;entryX=0;entryY=0.5;entryDx=0;entryDy=0;" edge="1" parent="1" source="eTj1_huy_UNCoXeqOB4v-3" target="eTj1_huy_UNCoXeqOB4v-4">
          <mxGeometry relative="1" as="geometry" />
        </mxCell>
        <mxCell id="eTj1_huy_UNCoXeqOB4v-3" value="-------------------------&#xa;| **Reporting**         |&#xa;-------------------------&#xa;| (без атрибутів)       |&#xa;-------------------------&#xa;| + generateInventoryReport(Warehouse): void |&#xa;-------------------------" style="rounded=0;whiteSpace=wrap;html=1;" vertex="1" parent="1">
          <mxGeometry x="80" y="270" width="120" height="160" as="geometry" />
        </mxCell>
        <mxCell id="eTj1_huy_UNCoXeqOB4v-7" value="" style="edgeStyle=orthogonalEdgeStyle;rounded=0;orthogonalLoop=1;jettySize=auto;html=1;" edge="1" parent="1" source="eTj1_huy_UNCoXeqOB4v-4" target="eTj1_huy_UNCoXeqOB4v-2">
          <mxGeometry relative="1" as="geometry" />
        </mxCell>
        <mxCell id="eTj1_huy_UNCoXeqOB4v-4" value="&#xa;&lt;span class=&quot;hljs-section&quot;&gt;&lt;span class=&quot;hljs-strong&quot;&gt;**Warehouse**&lt;/span&gt;         |&#xa;-------------------------&lt;/span&gt;&#xa;&lt;span class=&quot;hljs-section&quot;&gt;| - products: List&lt;span class=&quot;language-xml&quot;&gt;&lt;span class=&quot;hljs-tag&quot;&gt;&amp;lt;&lt;span class=&quot;hljs-name&quot;&gt;Product&lt;/span&gt;&amp;gt;&lt;/span&gt;&lt;/span&gt; |&#xa;-------------------------&lt;/span&gt;&#xa;| + addProduct(Product): void  |&#xa;&lt;span class=&quot;hljs-section&quot;&gt;| + displayProducts(): void &lt;/span&gt;&#xa;&#xa;" style="rounded=0;whiteSpace=wrap;html=1;" vertex="1" parent="1">
          <mxGeometry x="330" y="270" width="120" height="170" as="geometry" />
        </mxCell>
      </root>
    </mxGraphModel>
  </diagram>
</mxfile>
